<?xml version="1.0" encoding="utf-8"?>
<!-- Generator: Adobe Illustrator 24.0.2, SVG Export Plug-In . SVG Version: 6.00 Build 0)  -->
<svg version="1.1" baseProfile="basic" id="Слой_1"
	 xmlns="http://www.w3.org/2000/svg" xmlns:xlink="http://www.w3.org/1999/xlink" x="0px" y="0px" width="500px" height="428px"
	 viewBox="0 0 500 428" xml:space="preserve">
<style type="text/css">
	.st0{fill:#FFFFFF;}
	.st1{fill:#835F5C;}
	.st2{fill:#70514F;}
	.st3{fill:#FFE2B0;}
	.st4{fill:#F5D9A9;}
	.st5{fill:#2D2D2D;}
	.st6{fill:#009C5C;}
	.st7{fill:#02B769;}
	.st8{fill:none;stroke:#FF8E1C;stroke-miterlimit:10;}
	.st9{fill:#606060;}
	.st10{fill:#B6B7B6;}
	.st11{fill:#999999;}
</style>
<g id="OBJECTS">
	<g>
		<circle class="st0" cx="250" cy="214.48" r="200.33"/>
		<g>
			<path class="st1" d="M329.69,126.82c0-61.09-49.88-78.84-79.69-78.84c-30.07,0-79.33,15.46-79.33,78.84
				c0,62.04-25.39,58.81-23.38,94c3.18,55.59,51.03,68.53,102.89,68.53s99.7-12.94,102.88-68.53
				C355.08,185.62,329.69,188.86,329.69,126.82z"/>
			<path class="st2" d="M329.69,126.82c0-28.97-11.22-48.18-26.19-60.39c9.7,11.96,16.18,28.35,16.18,50.38
				c0,62.04,18.76,62.48,16.75,97.67c-3.18,55.59-44.4,64.86-96.26,64.86c-30.77,0-60.12-4.55-79.57-19.87
				c18.29,23.41,52.93,29.87,89.58,29.87c51.86,0,99.7-12.94,102.88-68.53C355.08,185.62,329.69,188.86,329.69,126.82z"/>
			<ellipse class="st3" cx="250" cy="136.6" rx="66.05" ry="72"/>
			<polygon class="st4" points="264.58,237.48 250.25,250.82 235.42,237.48 235.42,201.56 264.58,201.56 			"/>
			<path class="st4" d="M289.36,78.78l-53.8,29.86c8.11,37.68,62.77,49.55,62.77,49.55c-11.33,24.21-35.36,40.4-58.34,40.4
				c-14.75,0-28.37-5.27-39.36-14.18c12.1,14.83,29.73,24.19,49.37,24.19c36.48,0,66.05-32.24,66.05-72
				C316.05,112.91,305.56,91.9,289.36,78.78z"/>
			<path class="st1" d="M402.88,384.48c0,3.85-3.15,7-7,7H104.12c-3.85,0-7-3.15-7-7v-1.12c0-3.85,3.15-7,7-7h291.76
				c3.85,0,7,3.15,7,7V384.48z"/>
			<path class="st1" d="M298.06,82.31c-17.66-19.32-41.99-20.59-59.4-17.72c-17.85,2.95-50.33,18.05-54.96,61.06
				c0,0,31,0.87,51.85-17.02c11.86,21.11,35.11,43.18,80.49,43.18C316.05,151.82,325.25,112.07,298.06,82.31z"/>
			<path class="st5" d="M321.13,242.15c-17.13-4.08-58.02-17.67-58.02-17.67l-13.31,25l-12.31-25c0,0-46.68,13.82-63.17,20
				c-14.93,5.59-24.06,74.81-29.48,108.8c-1.52,9.54,18.81,23.3,18.81,23.3h86.14H333c0,0,23-16.76,21.49-25.07
				C348.3,317.39,343.29,247.45,321.13,242.15z"/>
			<path class="st0" d="M235.42,219.48l-15.49,11c0,0,11.82,5.75,30.01,19L235.42,219.48z"/>
			<path class="st0" d="M264.81,219.48l15,11c0,0-12.56,5.75-30.01,19L264.81,219.48z"/>
			<g>
				<path class="st6" d="M174.17,133.19c-0.04-1.39-0.75-34.26,20.92-56.58c12.65-13.03,30.3-19.63,52.46-19.63
					c40.42,0,59.57,20.74,68.52,38.15c9.65,18.77,9.76,37.24,9.76,38.02h-3c0-0.18-0.13-18.61-9.48-36.74
					c-12.47-24.17-34.61-36.42-65.8-36.42c-21.32,0-38.25,6.3-50.31,18.72c-20.8,21.42-20.09,54.08-20.08,54.4L174.17,133.19z"/>
			</g>
			<g>
				<path class="st6" d="M344.54,358.25c0,3.9-3.19,7.09-7.09,7.09h-174.9c-3.9,0-7.09-3.19-7.09-7.09v-95.72
					c0-3.9,3.19-7.09,7.09-7.09h174.9c3.9,0,7.09,3.19,7.09,7.09V358.25z"/>
				<path class="st7" d="M337.45,255.44h-6.75c0,0-15.77,102.81-175.23,102.81l0,0c0,3.9,3.19,7.09,7.09,7.09h174.9
					c3.9,0,7.09-3.19,7.09-7.09v-95.72C344.54,258.63,341.35,255.44,337.45,255.44z"/>
				<g>
					<path class="st0" d="M271.19,310.39c0,11.71-9.49,21.19-21.19,21.19c-11.7,0-21.19-9.49-21.19-21.19S238.3,289.2,250,289.2
						C261.71,289.2,271.19,298.69,271.19,310.39z"/>
					<g>
						<path class="st8" d="M261.27,310.39c0,6.2-5.03,11.23-11.23,11.23s-11.22-5.03-11.22-11.23s5.03-11.22,11.22-11.22
							C256.23,299.17,261.27,304.19,261.27,310.39z"/>
						<path class="st8" d="M249.95,317.84c-6.2,0-11.22-3.34-11.22-7.46s5.02-7.45,11.22-7.45s11.23,3.34,11.23,7.45
							C261.18,314.51,256.15,317.84,249.95,317.84z"/>
						<path class="st8" d="M249.95,312.84c-6.2,0-11.22-1.1-11.22-2.45s5.02-2.45,11.22-2.45s11.23,1.1,11.23,2.45
							C261.18,311.74,256.15,312.84,249.95,312.84z"/>
					</g>
					<g>
						<path class="st8" d="M242.55,310.39c0-6.2,3.34-11.22,7.45-11.22c4.12,0,7.45,5.02,7.45,11.22s-3.34,11.23-7.45,11.23
							C245.88,321.61,242.55,316.59,242.55,310.39z"/>
						<path class="st8" d="M247.55,310.39c0-6.2,1.1-11.22,2.45-11.22c1.35,0,2.45,5.02,2.45,11.22s-1.09,11.23-2.45,11.23
							C248.65,321.61,247.55,316.59,247.55,310.39z"/>
					</g>
				</g>
				<g>
					<g>
						<path class="st0" d="M206.59,368.09c0,6.33-1.47,1.81-3.29,1.81h-27.35c-1.82,0-3.29,3.57-3.29-1.81v-3.51
							c0-1.82,1.47-3.29,3.29-3.29h27.35c1.82,0,3.29,1.47,3.29,3.29V368.09z"/>
						<path class="st0" d="M327.34,370.02c0,1.82-1.47,1.44-3.29,1.44h-27.34c-1.82,0-3.29,0.51-3.29-1.31v-5.57
							c0-1.82,1.47-3.29,3.29-3.29h27.34c1.82,0,3.29,1.47,3.29,3.29V370.02z"/>
					</g>
					<path class="st7" d="M344.54,372.23c0,2.29-1.85,4.14-4.14,4.14H159.6c-2.29,0-4.14-1.85-4.14-4.14l0,0
						c0-2.29,1.85-4.14,4.14-4.14h180.8C342.69,368.09,344.54,369.94,344.54,372.23L344.54,372.23z"/>
				</g>
			</g>
			<g>
				<path class="st6" d="M230.71,199.37c-22.14,0-38.17-5.67-47.66-16.84c-11.56-13.62-8.98-30.26-8.87-30.96l2.96,0.49
					c-0.03,0.16-2.45,16.02,8.22,28.56c8.89,10.45,24.15,15.75,45.34,15.75L230.71,199.37L230.71,199.37z"/>
			</g>
			<g>
				<g>
					<path class="st9" d="M183.37,157.52L183.37,157.52c-10.94,0-19.81-8.87-19.81-19.81v-2.23c0-10.94,8.87-19.81,19.81-19.81l0,0"
						/>
					<path class="st6" d="M187.19,158.17c0,2.37-1.93,4.3-4.3,4.3l0,0c-2.37,0-4.3-1.92-4.3-4.3v-43.15c0-2.37,1.92-4.3,4.3-4.3l0,0
						c2.37,0,4.3,1.92,4.3,4.3V158.17z"/>
				</g>
				<g>
					<path class="st9" d="M316.63,115.67L316.63,115.67c10.94,0,19.81,8.87,19.81,19.81v2.23c0,10.94-8.87,19.81-19.81,19.81l0,0"/>
					<path class="st5" d="M326.03,118.05c2.75,3.4,4.4,7.72,4.4,12.43v2.23c0,8.85-5.8,16.33-13.8,18.88v5.93
						c10.94,0,19.81-8.87,19.81-19.81v-2.23C336.43,127.95,332.22,121.39,326.03,118.05z"/>
					<path class="st6" d="M312.8,115.02c0-2.37,1.93-4.3,4.3-4.3l0,0c2.37,0,4.3,1.92,4.3,4.3v43.15c0,2.37-1.93,4.3-4.3,4.3l0,0
						c-2.37,0-4.3-1.92-4.3-4.3V115.02z"/>
				</g>
			</g>
			<path class="st6" d="M242.55,197.87c0,4.38-3.55,7.94-7.94,7.94c-4.38,0-7.94-3.55-7.94-7.94c0-4.38,3.55-7.94,7.94-7.94
				C238.99,189.93,242.55,193.49,242.55,197.87z"/>
			<path class="st10" d="M377.08,6.53c-37.4,0-67.71,30.32-67.71,67.71c0,10.3,2.31,20.05,6.42,28.79l-21.28,40.66l40.66-16.28
				c11.53,9.1,26.08,14.55,41.91,14.55c37.4,0,67.71-30.32,67.71-67.71C444.79,36.85,414.47,6.53,377.08,6.53z"/>
			<path class="st11" d="M435.94,40.79c1.84,6.16,2.85,12.69,2.85,19.45c0,37.4-30.32,67.71-67.71,67.71
				c-15.83,0-30.38-5.45-41.91-14.55l-34.66,30.29l0,0l40.66-16.28c11.53,9.1,26.08,14.55,41.91,14.55
				c37.4,0,67.71-30.32,67.71-67.71C444.79,62.07,441.56,50.66,435.94,40.79z"/>
			<g>
				<path class="st0" d="M376.32,76.25c1.36-2.01,3.35-4.23,5.95-6.65c1.8-1.67,3.13-3.08,4-4.23s1.3-2.37,1.3-3.67
					c0-1.8-0.76-3.24-2.28-4.32s-3.49-1.63-5.9-1.63c-2.48,0-4.73,0.59-6.74,1.77c-2.01,1.18-3.64,2.82-4.88,4.93l-13.85-7.44
					c2.54-4.34,6.13-7.72,10.78-10.13c4.65-2.42,10.25-3.63,16.83-3.63c7.37,0,13.31,1.53,17.8,4.6s6.74,7.36,6.74,12.87
					c0,2.54-0.43,4.79-1.3,6.74s-1.91,3.6-3.11,4.93c-1.21,1.33-2.77,2.84-4.69,4.51c-2.11,1.8-3.66,3.33-4.65,4.6
					s-1.49,2.74-1.49,4.42h-16.55C374.27,80.82,374.95,78.27,376.32,76.25z M375.01,105.63c-1.98-1.89-2.97-4.2-2.97-6.93
					c0-2.79,0.98-5.08,2.93-6.88c1.95-1.8,4.48-2.7,7.58-2.7c3.1,0,5.64,0.9,7.62,2.7c1.98,1.8,2.97,4.09,2.97,6.88
					c0,2.73-0.99,5.04-2.97,6.93s-4.52,2.83-7.62,2.83C379.51,108.46,377,107.52,375.01,105.63z"/>
			</g>
		</g>
	</g>
</g>
<g id="DESIGNED_BY_FREEPIK">
</g>
</svg>
